# xmcd CD database file
#
# Track frame offsets:
#	150
#	14565
#	28116
#	41484
#	55775
#	67802
#	84600
#	102122
#	113713
#	128727
#	137567
#	148427
#	168622
#	181424
#	193068
#
# Disc length: 2782 seconds
#
# Revision: 0
# Processed by: cddbd v1.5.2PL0 Copyright (c) Steve Scherf et al.
# Submitted via: CDex 1.81
#
DISCID=d40adc0f
DTITLE=Bar D Wranglers - Durango
DYEAR=2015
DGENRE=Country
TTITLE0=Durango
TTITLE1=Twilight On The Trail
TTITLE2=Sioux City Sue
TTITLE3=Whoopi Ti Yi Yo
TTITLE4=When The Bloom Is On The Sage
TTITLE5=When The Works All Done InThe Fall
TTITLE6=Red River Valley
TTITLE7=Yellow Rose Of Texas
TTITLE8=Streets Of Laredo
TTITLE9=The Big Corral
TTITLE10=Forked Deer
TTITLE11=Home On TheRange
TTITLE12=The Girl I Left Behind Me
TTITLE13=O Bury Me Not
TTITLE14=In The Garden
EXTD=YEAR: 2015
EXTT0=
EXTT1=
EXTT2=
EXTT3=
EXTT4=
EXTT5=
EXTT6=
EXTT7=
EXTT8=
EXTT9=
EXTT10=
EXTT11=
EXTT12=
EXTT13=
EXTT14=
PLAYORDER=
